<svg xmlns="http://www.w3.org/2000/svg" xmlns:xlink="http://www.w3.org/1999/xlink" width="1920" zoomAndPan="magnify" viewBox="0 0 1440 666.749997" height="889" preserveAspectRatio="xMidYMid meet" version="1.0"><defs><filter x="0%" y="0%" width="100%" height="100%" id="f88e26095f"><feColorMatrix values="0 0 0 0 1 0 0 0 0 1 0 0 0 0 1 0 0 0 1 0" color-interpolation-filters="sRGB"/></filter><g/><mask id="d06ca8adbc"><g filter="url(#f88e26095f)"><rect x="-144" width="1728" fill="#000000" y="-66.675" height="800.099996" fill-opacity="0.89"/></g></mask><clipPath id="3afe00f206"><path d="M 0.867188 0.914062 L 1067.183594 0.914062 L 1067.183594 201.632812 L 0.867188 201.632812 Z M 0.867188 0.914062 " clip-rule="nonzero"/></clipPath><clipPath id="0bae1b9110"><path d="M 33.105469 0.914062 L 1034.894531 0.914062 C 1052.699219 0.914062 1067.132812 15.347656 1067.132812 33.152344 L 1067.132812 169.394531 C 1067.132812 187.199219 1052.699219 201.632812 1034.894531 201.632812 L 33.105469 201.632812 C 15.300781 201.632812 0.867188 187.199219 0.867188 169.394531 L 0.867188 33.152344 C 0.867188 15.347656 15.300781 0.914062 33.105469 0.914062 Z M 33.105469 0.914062 " clip-rule="nonzero"/></clipPath><clipPath id="3f0cd08ce3"><rect x="0" width="1068" y="0" height="202"/></clipPath></defs><g mask="url(#d06ca8adbc)"><g transform="matrix(1, 0, 0, 1, 186, 229)"><g clip-path="url(#3f0cd08ce3)"><g clip-path="url(#3afe00f206)"><g clip-path="url(#0bae1b9110)"><path fill="#31a6c7" d="M 0.867188 0.914062 L 1067.183594 0.914062 L 1067.183594 201.632812 L 0.867188 201.632812 Z M 0.867188 0.914062 " fill-opacity="1" fill-rule="nonzero"/></g></g></g></g></g><g fill="#ffffff" fill-opacity="1"><g transform="translate(254.570996, 372.012881)"><g><path d="M 28.359375 -7.921875 C 39.992188 -7.921875 45.8125 -11.898438 45.8125 -19.859375 C 45.8125 -22.316406 45.296875 -24.40625 44.265625 -26.125 C 43.234375 -27.84375 41.835938 -29.332031 40.078125 -30.59375 C 38.316406 -31.863281 36.304688 -32.957031 34.046875 -33.875 C 31.785156 -34.789062 29.394531 -35.707031 26.875 -36.625 C 23.957031 -37.625 21.195312 -38.753906 18.59375 -40.015625 C 16 -41.273438 13.742188 -42.765625 11.828125 -44.484375 C 9.910156 -46.210938 8.394531 -48.265625 7.28125 -50.640625 C 6.175781 -53.015625 5.625 -55.882812 5.625 -59.25 C 5.625 -66.21875 7.992188 -71.648438 12.734375 -75.546875 C 17.484375 -79.453125 24.03125 -81.40625 32.375 -81.40625 C 37.195312 -81.40625 41.578125 -80.890625 45.515625 -79.859375 C 49.460938 -78.828125 52.359375 -77.695312 54.203125 -76.46875 L 50.640625 -67.40625 C 49.035156 -68.394531 46.644531 -69.367188 43.46875 -70.328125 C 40.289062 -71.285156 36.59375 -71.765625 32.375 -71.765625 C 30.238281 -71.765625 28.25 -71.535156 26.40625 -71.078125 C 24.570312 -70.617188 22.960938 -69.929688 21.578125 -69.015625 C 20.203125 -68.097656 19.113281 -66.929688 18.3125 -65.515625 C 17.507812 -64.097656 17.109375 -62.429688 17.109375 -60.515625 C 17.109375 -58.367188 17.53125 -56.566406 18.375 -55.109375 C 19.21875 -53.660156 20.40625 -52.378906 21.9375 -51.265625 C 23.46875 -50.160156 25.242188 -49.144531 27.265625 -48.21875 C 29.296875 -47.300781 31.535156 -46.382812 33.984375 -45.46875 C 37.429688 -44.09375 40.585938 -42.710938 43.453125 -41.328125 C 46.328125 -39.953125 48.816406 -38.304688 50.921875 -36.390625 C 53.023438 -34.484375 54.648438 -32.207031 55.796875 -29.5625 C 56.953125 -26.925781 57.53125 -23.734375 57.53125 -19.984375 C 57.53125 -13.015625 54.984375 -7.65625 49.890625 -3.90625 C 44.796875 -0.15625 37.617188 1.71875 28.359375 1.71875 C 25.222656 1.71875 22.332031 1.503906 19.6875 1.078125 C 17.050781 0.660156 14.695312 0.164062 12.625 -0.40625 C 10.5625 -0.976562 8.78125 -1.585938 7.28125 -2.234375 C 5.789062 -2.890625 4.628906 -3.445312 3.796875 -3.90625 L 7.125 -13.09375 C 8.882812 -12.09375 11.5625 -10.976562 15.15625 -9.75 C 18.75 -8.53125 23.148438 -7.921875 28.359375 -7.921875 Z M 28.359375 -7.921875 "/></g></g></g><g fill="#ffffff" fill-opacity="1"><g transform="translate(315.64989, 372.012881)"><g><path d="M 31.34375 0.6875 C 29.738281 0.6875 28 0.644531 26.125 0.5625 C 24.25 0.488281 22.375 0.375 20.5 0.21875 C 18.625 0.0703125 16.765625 -0.113281 14.921875 -0.34375 C 13.085938 -0.570312 11.40625 -0.878906 9.875 -1.265625 L 9.875 -78.421875 C 11.40625 -78.804688 13.085938 -79.113281 14.921875 -79.34375 C 16.765625 -79.570312 18.625 -79.765625 20.5 -79.921875 C 22.375 -80.078125 24.226562 -80.191406 26.0625 -80.265625 C 27.90625 -80.335938 29.628906 -80.375 31.234375 -80.375 C 35.828125 -80.375 40.132812 -80.03125 44.15625 -79.34375 C 48.175781 -78.65625 51.65625 -77.488281 54.59375 -75.84375 C 57.539062 -74.195312 59.859375 -72.035156 61.546875 -69.359375 C 63.234375 -66.679688 64.078125 -63.390625 64.078125 -59.484375 C 64.078125 -55.117188 63.039062 -51.535156 60.96875 -48.734375 C 58.90625 -45.941406 56.148438 -43.859375 52.703125 -42.484375 C 57.367188 -41.109375 61.082031 -38.925781 63.84375 -35.9375 C 66.601562 -32.957031 67.984375 -28.75 67.984375 -23.3125 C 67.984375 -15.351562 65.050781 -9.363281 59.1875 -5.34375 C 53.332031 -1.320312 44.050781 0.6875 31.34375 0.6875 Z M 20.90625 -37.09375 L 20.90625 -9.078125 C 21.738281 -8.992188 22.734375 -8.914062 23.890625 -8.84375 C 24.878906 -8.769531 26.039062 -8.710938 27.375 -8.671875 C 28.71875 -8.628906 30.269531 -8.609375 32.03125 -8.609375 C 35.320312 -8.609375 38.441406 -8.816406 41.390625 -9.234375 C 44.335938 -9.660156 46.921875 -10.410156 49.140625 -11.484375 C 51.359375 -12.554688 53.140625 -14.046875 54.484375 -15.953125 C 55.828125 -17.867188 56.5 -20.28125 56.5 -23.1875 C 56.5 -25.789062 56 -27.992188 55 -29.796875 C 54.007812 -31.597656 52.578125 -33.035156 50.703125 -34.109375 C 48.828125 -35.179688 46.585938 -35.945312 43.984375 -36.40625 C 41.378906 -36.863281 38.46875 -37.09375 35.25 -37.09375 Z M 20.90625 -46.046875 L 32.609375 -46.046875 C 35.367188 -46.046875 37.972656 -46.234375 40.421875 -46.609375 C 42.867188 -46.992188 44.988281 -47.6875 46.78125 -48.6875 C 48.582031 -49.6875 50 -50.988281 51.03125 -52.59375 C 52.070312 -54.195312 52.59375 -56.222656 52.59375 -58.671875 C 52.59375 -60.972656 52.054688 -62.90625 50.984375 -64.46875 C 49.910156 -66.039062 48.4375 -67.304688 46.5625 -68.265625 C 44.6875 -69.222656 42.484375 -69.929688 39.953125 -70.390625 C 37.429688 -70.847656 34.753906 -71.078125 31.921875 -71.078125 C 29.085938 -71.078125 26.863281 -71.035156 25.25 -70.953125 C 23.644531 -70.878906 22.195312 -70.769531 20.90625 -70.625 Z M 20.90625 -46.046875 "/></g></g></g><g fill="#ffffff" fill-opacity="1"><g transform="translate(389.472687, 372.012881)"><g><path d="M 9.875 -79.578125 L 21.015625 -79.578125 L 21.015625 0 L 9.875 0 Z M 9.875 -79.578125 "/></g></g></g><g fill="#ffffff" fill-opacity="1"><g transform="translate(420.356558, 372.012881)"><g><path d="M 64.421875 0 C 62.734375 -2.832031 60.796875 -6.007812 58.609375 -9.53125 C 56.429688 -13.050781 54.078125 -16.707031 51.546875 -20.5 C 49.023438 -24.289062 46.40625 -28.132812 43.6875 -32.03125 C 40.96875 -35.9375 38.269531 -39.707031 35.59375 -43.34375 C 32.914062 -46.976562 30.3125 -50.40625 27.78125 -53.625 C 25.257812 -56.84375 22.925781 -59.675781 20.78125 -62.125 L 20.78125 0 L 9.875 0 L 9.875 -79.578125 L 18.71875 -79.578125 C 22.3125 -75.742188 26.15625 -71.28125 30.25 -66.1875 C 34.351562 -61.101562 38.410156 -55.863281 42.421875 -50.46875 C 46.441406 -45.070312 50.234375 -39.769531 53.796875 -34.5625 C 57.359375 -29.351562 60.363281 -24.722656 62.8125 -20.671875 L 62.8125 -79.578125 L 73.71875 -79.578125 L 73.71875 0 Z M 64.421875 0 "/></g></g></g><path stroke-linecap="butt" transform="matrix(0, 0.749719, -0.749719, 0, 553.315924, 268.020939)" fill="none" stroke-linejoin="miter" d="M -0.00187735 3.50067 L 167.305631 3.50067 " stroke="#ffffff" stroke-width="7" stroke-opacity="1" stroke-miterlimit="4"/><path stroke-linecap="butt" transform="matrix(0, 0.749719, -0.749719, 0, 758.112798, 268.482718)" fill="none" stroke-linejoin="miter" d="M 0.00221074 3.500668 L 167.309719 3.500668 " stroke="#ffffff" stroke-width="7" stroke-opacity="1" stroke-miterlimit="4"/><path stroke-linecap="butt" transform="matrix(0, 0.749719, -0.749719, 0, 382.26413, 398.937959)" fill="none" stroke-linejoin="miter" d="M 30.000218 3.999505 L 180.989109 3.999505 " stroke="#27819b" stroke-width="8" stroke-opacity="1" stroke-miterlimit="4"/><path stroke-linecap="round" transform="matrix(0, 0.749719, -0.749719, 0, 382.26413, 398.937959)" fill-opacity="1" fill="#27819b" fill-rule="nonzero" stroke-linejoin="round" d="M 4.000888 3.999505 C 4.000888 -2.627979 9.372694 -7.999784 16.000178 -7.999784 C 22.627662 -7.999784 27.999468 -2.627979 27.999468 3.999505 C 27.999468 10.62699 22.627662 15.998795 16.000178 15.998795 C 9.372694 15.998795 4.000888 10.62699 4.000888 3.999505 " stroke="#27819b" stroke-width="8" stroke-opacity="1" stroke-miterlimit="4"/><path stroke-linecap="butt" transform="matrix(0.00000000130851, -0.749719, 0.749719, 0.00000000130851, 645.89735, 261.604691)" fill="none" stroke-linejoin="miter" d="M 29.999792 3.99774 L 164.612753 3.997739 " stroke="#27819b" stroke-width="8" stroke-opacity="1" stroke-miterlimit="4"/><path stroke-linecap="round" transform="matrix(0.00000000130851, -0.749719, 0.749719, 0.00000000130851, 645.89735, 261.604691)" fill-opacity="1" fill="#27819b" fill-rule="nonzero" stroke-linejoin="round" d="M 4.000463 3.99774 C 4.000463 -2.629745 9.372268 -8.00155 15.999753 -8.00155 C 22.627237 -8.00155 27.999042 -2.629745 27.999042 3.99774 C 27.999042 10.625224 22.627237 16.00224 15.999753 16.00224 C 9.372268 16.00224 4.000463 10.625224 4.000463 3.99774 " stroke="#27819b" stroke-width="8" stroke-opacity="1" stroke-miterlimit="4"/><path stroke-linecap="butt" transform="matrix(0, 0.749719, -0.749719, 0, 996.875246, 398.939247)" fill="none" stroke-linejoin="miter" d="M 29.998499 4.001828 L 164.616671 4.001828 " stroke="#27819b" stroke-width="8" stroke-opacity="1" stroke-miterlimit="4"/><path stroke-linecap="round" transform="matrix(0, 0.749719, -0.749719, 0, 996.875246, 398.939247)" fill-opacity="1" fill="#27819b" fill-rule="nonzero" stroke-linejoin="round" d="M 3.99917 4.001828 C 3.99917 -2.625656 9.370975 -7.997462 15.99846 -7.997462 C 22.625944 -7.997462 27.997749 -2.625656 27.997749 4.001828 C 27.997749 10.629312 22.625944 16.001118 15.99846 16.001118 C 9.370975 16.001118 3.99917 10.629312 3.99917 4.001828 " stroke="#27819b" stroke-width="8" stroke-opacity="1" stroke-miterlimit="4"/><g fill="#ffffff" fill-opacity="1"><g transform="translate(799.61564, 372.012881)"><g><path d="M 5.734375 -39.84375 C 5.734375 -53.164062 8.085938 -63.421875 12.796875 -70.609375 C 17.503906 -77.804688 24.03125 -81.40625 32.375 -81.40625 C 40.71875 -81.40625 47.242188 -77.804688 51.953125 -70.609375 C 56.660156 -63.421875 59.015625 -53.164062 59.015625 -39.84375 C 59.015625 -26.519531 56.660156 -16.257812 51.953125 -9.0625 C 47.242188 -1.875 40.71875 1.71875 32.375 1.71875 C 24.03125 1.71875 17.503906 -1.875 12.796875 -9.0625 C 8.085938 -16.257812 5.734375 -26.519531 5.734375 -39.84375 Z M 47.765625 -39.84375 C 47.765625 -44.207031 47.515625 -48.34375 47.015625 -52.25 C 46.523438 -56.15625 45.6875 -59.5625 44.5 -62.46875 C 43.3125 -65.375 41.722656 -67.6875 39.734375 -69.40625 C 37.742188 -71.132812 35.289062 -72 32.375 -72 C 29.46875 -72 27.019531 -71.132812 25.03125 -69.40625 C 23.039062 -67.6875 21.453125 -65.375 20.265625 -62.46875 C 19.078125 -59.5625 18.234375 -56.15625 17.734375 -52.25 C 17.242188 -48.34375 17 -44.207031 17 -39.84375 C 17 -35.476562 17.242188 -31.34375 17.734375 -27.4375 C 18.234375 -23.539062 19.078125 -20.132812 20.265625 -17.21875 C 21.453125 -14.3125 23.039062 -11.992188 25.03125 -10.265625 C 27.019531 -8.546875 29.46875 -7.6875 32.375 -7.6875 C 35.289062 -7.6875 37.742188 -8.546875 39.734375 -10.265625 C 41.722656 -11.992188 43.3125 -14.3125 44.5 -17.21875 C 45.6875 -20.132812 46.523438 -23.539062 47.015625 -27.4375 C 47.515625 -31.34375 47.765625 -35.476562 47.765625 -39.84375 Z M 47.765625 -39.84375 "/></g></g></g><g fill="#ffffff" fill-opacity="1"><g transform="translate(864.368464, 372.012881)"><g><path d="M 5.734375 -39.84375 C 5.734375 -53.164062 8.085938 -63.421875 12.796875 -70.609375 C 17.503906 -77.804688 24.03125 -81.40625 32.375 -81.40625 C 40.71875 -81.40625 47.242188 -77.804688 51.953125 -70.609375 C 56.660156 -63.421875 59.015625 -53.164062 59.015625 -39.84375 C 59.015625 -26.519531 56.660156 -16.257812 51.953125 -9.0625 C 47.242188 -1.875 40.71875 1.71875 32.375 1.71875 C 24.03125 1.71875 17.503906 -1.875 12.796875 -9.0625 C 8.085938 -16.257812 5.734375 -26.519531 5.734375 -39.84375 Z M 47.765625 -39.84375 C 47.765625 -44.207031 47.515625 -48.34375 47.015625 -52.25 C 46.523438 -56.15625 45.6875 -59.5625 44.5 -62.46875 C 43.3125 -65.375 41.722656 -67.6875 39.734375 -69.40625 C 37.742188 -71.132812 35.289062 -72 32.375 -72 C 29.46875 -72 27.019531 -71.132812 25.03125 -69.40625 C 23.039062 -67.6875 21.453125 -65.375 20.265625 -62.46875 C 19.078125 -59.5625 18.234375 -56.15625 17.734375 -52.25 C 17.242188 -48.34375 17 -44.207031 17 -39.84375 C 17 -35.476562 17.242188 -31.34375 17.734375 -27.4375 C 18.234375 -23.539062 19.078125 -20.132812 20.265625 -17.21875 C 21.453125 -14.3125 23.039062 -11.992188 25.03125 -10.265625 C 27.019531 -8.546875 29.46875 -7.6875 32.375 -7.6875 C 35.289062 -7.6875 37.742188 -8.546875 39.734375 -10.265625 C 41.722656 -11.992188 43.3125 -14.3125 44.5 -17.21875 C 45.6875 -20.132812 46.523438 -23.539062 47.015625 -27.4375 C 47.515625 -31.34375 47.765625 -35.476562 47.765625 -39.84375 Z M 47.765625 -39.84375 "/></g></g></g><g fill="#ffffff" fill-opacity="1"><g transform="translate(929.121287, 372.012881)"><g><path d="M 10.671875 -63.15625 C 15.035156 -64.84375 19.285156 -67.003906 23.421875 -69.640625 C 27.554688 -72.285156 31.347656 -75.597656 34.796875 -79.578125 L 42.375 -79.578125 L 42.375 0 L 31.6875 0 L 31.6875 -64.765625 C 30.769531 -63.921875 29.640625 -63.039062 28.296875 -62.125 C 26.960938 -61.207031 25.507812 -60.328125 23.9375 -59.484375 C 22.375 -58.640625 20.726562 -57.832031 19 -57.0625 C 17.28125 -56.300781 15.617188 -55.65625 14.015625 -55.125 Z M 10.671875 -63.15625 "/></g></g></g><g fill="#ffffff" fill-opacity="1"><g transform="translate(993.874111, 372.012881)"><g><path d="M 53.625 -59.25 C 53.625 -56.5 53.066406 -53.835938 51.953125 -51.265625 C 50.847656 -48.703125 49.375 -46.175781 47.53125 -43.6875 C 45.695312 -41.195312 43.628906 -38.742188 41.328125 -36.328125 C 39.035156 -33.921875 36.742188 -31.570312 34.453125 -29.28125 C 33.148438 -27.976562 31.632812 -26.445312 29.90625 -24.6875 C 28.1875 -22.925781 26.5625 -21.085938 25.03125 -19.171875 C 23.5 -17.265625 22.21875 -15.429688 21.1875 -13.671875 C 20.15625 -11.910156 19.640625 -10.378906 19.640625 -9.078125 L 56.265625 -9.078125 L 56.265625 0 L 8.03125 0 C 7.957031 -0.457031 7.921875 -0.914062 7.921875 -1.375 C 7.921875 -1.832031 7.921875 -2.253906 7.921875 -2.640625 C 7.921875 -6.234375 8.515625 -9.582031 9.703125 -12.6875 C 10.890625 -15.789062 12.4375 -18.71875 14.34375 -21.46875 C 16.257812 -24.226562 18.40625 -26.832031 20.78125 -29.28125 C 23.15625 -31.726562 25.488281 -34.101562 27.78125 -36.40625 C 29.695312 -38.238281 31.515625 -40.050781 33.234375 -41.84375 C 34.960938 -43.644531 36.492188 -45.445312 37.828125 -47.25 C 39.171875 -49.050781 40.242188 -50.90625 41.046875 -52.8125 C 41.847656 -54.726562 42.25 -56.757812 42.25 -58.90625 C 42.25 -61.207031 41.882812 -63.160156 41.15625 -64.765625 C 40.4375 -66.367188 39.460938 -67.707031 38.234375 -68.78125 C 37.015625 -69.851562 35.582031 -70.632812 33.9375 -71.125 C 32.289062 -71.625 30.546875 -71.875 28.703125 -71.875 C 26.484375 -71.875 24.453125 -71.566406 22.609375 -70.953125 C 20.773438 -70.347656 19.128906 -69.644531 17.671875 -68.84375 C 16.222656 -68.039062 15 -67.195312 14 -66.3125 C 13.007812 -65.4375 12.25 -64.765625 11.71875 -64.296875 L 6.4375 -71.875 C 7.125 -72.644531 8.15625 -73.582031 9.53125 -74.6875 C 10.90625 -75.800781 12.550781 -76.851562 14.46875 -77.84375 C 16.382812 -78.84375 18.523438 -79.6875 20.890625 -80.375 C 23.265625 -81.0625 25.832031 -81.40625 28.59375 -81.40625 C 36.9375 -81.40625 43.191406 -79.472656 47.359375 -75.609375 C 51.535156 -71.742188 53.625 -66.289062 53.625 -59.25 Z M 53.625 -59.25 "/></g></g></g><g fill="#ffffff" fill-opacity="1"><g transform="translate(1058.626934, 372.012881)"><g><path d="M 25.953125 -7.8125 C 32.765625 -7.8125 37.644531 -9.148438 40.59375 -11.828125 C 43.539062 -14.503906 45.015625 -18.101562 45.015625 -22.625 C 45.015625 -25.53125 44.398438 -27.976562 43.171875 -29.96875 C 41.953125 -31.957031 40.34375 -33.546875 38.34375 -34.734375 C 36.351562 -35.921875 34.035156 -36.765625 31.390625 -37.265625 C 28.753906 -37.765625 26.0625 -38.015625 23.3125 -38.015625 L 20.546875 -38.015625 L 20.546875 -46.734375 L 24.34375 -46.734375 C 26.257812 -46.734375 28.226562 -46.925781 30.25 -47.3125 C 32.28125 -47.695312 34.140625 -48.382812 35.828125 -49.375 C 37.515625 -50.375 38.890625 -51.734375 39.953125 -53.453125 C 41.023438 -55.171875 41.5625 -57.332031 41.5625 -59.9375 C 41.5625 -62.082031 41.175781 -63.921875 40.40625 -65.453125 C 39.644531 -66.984375 38.632812 -68.242188 37.375 -69.234375 C 36.113281 -70.234375 34.660156 -70.941406 33.015625 -71.359375 C 31.367188 -71.785156 29.625 -72 27.78125 -72 C 24.113281 -72 20.992188 -71.460938 18.421875 -70.390625 C 15.859375 -69.316406 13.695312 -68.207031 11.9375 -67.0625 L 7.8125 -75.21875 C 8.726562 -75.820312 9.894531 -76.488281 11.3125 -77.21875 C 12.726562 -77.945312 14.316406 -78.617188 16.078125 -79.234375 C 17.835938 -79.847656 19.726562 -80.363281 21.75 -80.78125 C 23.78125 -81.195312 25.910156 -81.40625 28.140625 -81.40625 C 32.347656 -81.40625 35.984375 -80.890625 39.046875 -79.859375 C 42.109375 -78.828125 44.632812 -77.375 46.625 -75.5 C 48.613281 -73.625 50.101562 -71.40625 51.09375 -68.84375 C 52.09375 -66.28125 52.59375 -63.503906 52.59375 -60.515625 C 52.59375 -56.378906 51.40625 -52.835938 49.03125 -49.890625 C 46.65625 -46.941406 43.785156 -44.703125 40.421875 -43.171875 C 42.484375 -42.554688 44.472656 -41.675781 46.390625 -40.53125 C 48.304688 -39.382812 49.972656 -37.929688 51.390625 -36.171875 C 52.804688 -34.410156 53.953125 -32.378906 54.828125 -30.078125 C 55.710938 -27.785156 56.15625 -25.222656 56.15625 -22.390625 C 56.15625 -18.941406 55.5625 -15.742188 54.375 -12.796875 C 53.1875 -9.847656 51.347656 -7.300781 48.859375 -5.15625 C 46.367188 -3.019531 43.25 -1.335938 39.5 -0.109375 C 35.75 1.109375 31.3125 1.71875 26.1875 1.71875 C 24.1875 1.71875 22.132812 1.5625 20.03125 1.25 C 17.925781 0.945312 15.957031 0.566406 14.125 0.109375 C 12.289062 -0.347656 10.679688 -0.804688 9.296875 -1.265625 C 7.921875 -1.722656 6.925781 -2.101562 6.3125 -2.40625 L 8.375 -11.71875 C 9.675781 -11.101562 11.835938 -10.296875 14.859375 -9.296875 C 17.890625 -8.304688 21.585938 -7.8125 25.953125 -7.8125 Z M 25.953125 -7.8125 "/></g></g></g><g fill="#ffffff" fill-opacity="1"><g transform="translate(1123.379757, 372.012881)"><g><path d="M 4.59375 -27.5625 C 6.050781 -30.925781 8.039062 -34.847656 10.5625 -39.328125 C 13.09375 -43.804688 15.945312 -48.414062 19.125 -53.15625 C 22.300781 -57.90625 25.707031 -62.578125 29.34375 -67.171875 C 32.976562 -71.765625 36.628906 -75.898438 40.296875 -79.578125 L 50.53125 -79.578125 L 50.53125 -29.046875 L 59.9375 -29.046875 L 59.9375 -20.328125 L 50.53125 -20.328125 L 50.53125 0 L 40.1875 0 L 40.1875 -20.328125 L 4.59375 -20.328125 Z M 40.1875 -66.9375 C 37.894531 -64.488281 35.578125 -61.753906 33.234375 -58.734375 C 30.898438 -55.710938 28.625 -52.554688 26.40625 -49.265625 C 24.1875 -45.972656 22.097656 -42.601562 20.140625 -39.15625 C 18.191406 -35.707031 16.453125 -32.335938 14.921875 -29.046875 L 40.1875 -29.046875 Z M 40.1875 -66.9375 "/></g></g></g><g fill="#ffffff" fill-opacity="1"><g transform="translate(625.56034, 377.961196)"><g><path d="M 5.734375 -39.84375 C 5.734375 -53.164062 8.085938 -63.421875 12.796875 -70.609375 C 17.503906 -77.804688 24.03125 -81.40625 32.375 -81.40625 C 40.71875 -81.40625 47.242188 -77.804688 51.953125 -70.609375 C 56.660156 -63.421875 59.015625 -53.164062 59.015625 -39.84375 C 59.015625 -26.519531 56.660156 -16.257812 51.953125 -9.0625 C 47.242188 -1.875 40.71875 1.71875 32.375 1.71875 C 24.03125 1.71875 17.503906 -1.875 12.796875 -9.0625 C 8.085938 -16.257812 5.734375 -26.519531 5.734375 -39.84375 Z M 47.765625 -39.84375 C 47.765625 -44.207031 47.515625 -48.34375 47.015625 -52.25 C 46.523438 -56.15625 45.6875 -59.5625 44.5 -62.46875 C 43.3125 -65.375 41.722656 -67.6875 39.734375 -69.40625 C 37.742188 -71.132812 35.289062 -72 32.375 -72 C 29.46875 -72 27.019531 -71.132812 25.03125 -69.40625 C 23.039062 -67.6875 21.453125 -65.375 20.265625 -62.46875 C 19.078125 -59.5625 18.234375 -56.15625 17.734375 -52.25 C 17.242188 -48.34375 17 -44.207031 17 -39.84375 C 17 -35.476562 17.242188 -31.34375 17.734375 -27.4375 C 18.234375 -23.539062 19.078125 -20.132812 20.265625 -17.21875 C 21.453125 -14.3125 23.039062 -11.992188 25.03125 -10.265625 C 27.019531 -8.546875 29.46875 -7.6875 32.375 -7.6875 C 35.289062 -7.6875 37.742188 -8.546875 39.734375 -10.265625 C 41.722656 -11.992188 43.3125 -14.3125 44.5 -17.21875 C 45.6875 -20.132812 46.523438 -23.539062 47.015625 -27.4375 C 47.515625 -31.34375 47.765625 -35.476562 47.765625 -39.84375 Z M 47.765625 -39.84375 "/></g></g></g><g fill="#27819b" fill-opacity="1"><g transform="translate(251.764393, 564.378861)"><g><path d="M 9.828125 0.28125 C 8.628906 0.28125 7.429688 0.242188 6.234375 0.171875 C 5.046875 0.0976562 3.8125 -0.0703125 2.53125 -0.34375 L 2.53125 -21.578125 C 3.539062 -21.765625 4.644531 -21.90625 5.84375 -22 C 7.039062 -22.09375 8.15625 -22.140625 9.1875 -22.140625 C 10.582031 -22.140625 11.863281 -22.039062 13.03125 -21.84375 C 14.195312 -21.644531 15.203125 -21.300781 16.046875 -20.8125 C 16.890625 -20.332031 17.546875 -19.695312 18.015625 -18.90625 C 18.492188 -18.113281 18.734375 -17.140625 18.734375 -15.984375 C 18.734375 -14.234375 17.890625 -12.851562 16.203125 -11.84375 C 17.597656 -11.320312 18.546875 -10.609375 19.046875 -9.703125 C 19.554688 -8.796875 19.8125 -7.773438 19.8125 -6.640625 C 19.8125 -4.335938 18.972656 -2.609375 17.296875 -1.453125 C 15.617188 -0.296875 13.128906 0.28125 9.828125 0.28125 Z M 7.328125 -9.546875 L 7.328125 -3.890625 C 7.679688 -3.847656 8.066406 -3.816406 8.484375 -3.796875 C 8.910156 -3.773438 9.378906 -3.765625 9.890625 -3.765625 C 11.359375 -3.765625 12.546875 -3.972656 13.453125 -4.390625 C 14.359375 -4.804688 14.8125 -5.585938 14.8125 -6.734375 C 14.8125 -7.742188 14.429688 -8.460938 13.671875 -8.890625 C 12.921875 -9.328125 11.835938 -9.546875 10.421875 -9.546875 Z M 7.328125 -13.296875 L 9.734375 -13.296875 C 11.242188 -13.296875 12.328125 -13.488281 12.984375 -13.875 C 13.640625 -14.269531 13.96875 -14.898438 13.96875 -15.765625 C 13.96875 -16.648438 13.628906 -17.269531 12.953125 -17.625 C 12.273438 -17.988281 11.285156 -18.171875 9.984375 -18.171875 C 9.566406 -18.171875 9.113281 -18.164062 8.625 -18.15625 C 8.144531 -18.144531 7.710938 -18.117188 7.328125 -18.078125 Z M 7.328125 -13.296875 "/></g></g></g><g fill="#27819b" fill-opacity="1"><g transform="translate(272.996636, 564.378861)"><g><path d="M 12.234375 -12.453125 C 11.804688 -12.554688 11.304688 -12.664062 10.734375 -12.78125 C 10.171875 -12.894531 9.5625 -12.953125 8.90625 -12.953125 C 8.613281 -12.953125 8.257812 -12.925781 7.84375 -12.875 C 7.4375 -12.820312 7.128906 -12.765625 6.921875 -12.703125 L 6.921875 0 L 2.21875 0 L 2.21875 -15.734375 C 3.050781 -16.023438 4.039062 -16.300781 5.1875 -16.5625 C 6.34375 -16.832031 7.625 -16.96875 9.03125 -16.96875 C 9.289062 -16.96875 9.597656 -16.953125 9.953125 -16.921875 C 10.304688 -16.890625 10.660156 -16.847656 11.015625 -16.796875 C 11.378906 -16.742188 11.738281 -16.675781 12.09375 -16.59375 C 12.457031 -16.519531 12.765625 -16.429688 13.015625 -16.328125 Z M 12.234375 -12.453125 "/></g></g></g><g fill="#27819b" fill-opacity="1"><g transform="translate(286.32998, 564.378861)"><g><path d="M 8.5625 -3.28125 C 9.019531 -3.28125 9.457031 -3.289062 9.875 -3.3125 C 10.300781 -3.332031 10.644531 -3.363281 10.90625 -3.40625 L 10.90625 -6.984375 C 10.707031 -7.023438 10.421875 -7.066406 10.046875 -7.109375 C 9.671875 -7.148438 9.320312 -7.171875 9 -7.171875 C 8.5625 -7.171875 8.144531 -7.144531 7.75 -7.09375 C 7.363281 -7.039062 7.019531 -6.941406 6.71875 -6.796875 C 6.425781 -6.648438 6.195312 -6.445312 6.03125 -6.1875 C 5.863281 -5.9375 5.78125 -5.625 5.78125 -5.25 C 5.78125 -4.507812 6.023438 -3.992188 6.515625 -3.703125 C 7.015625 -3.421875 7.695312 -3.28125 8.5625 -3.28125 Z M 8.1875 -17.0625 C 9.570312 -17.0625 10.726562 -16.898438 11.65625 -16.578125 C 12.582031 -16.265625 13.320312 -15.8125 13.875 -15.21875 C 14.4375 -14.632812 14.832031 -13.921875 15.0625 -13.078125 C 15.300781 -12.234375 15.421875 -11.296875 15.421875 -10.265625 L 15.421875 -0.46875 C 14.742188 -0.320312 13.804688 -0.148438 12.609375 0.046875 C 11.410156 0.242188 9.957031 0.34375 8.25 0.34375 C 7.175781 0.34375 6.203125 0.25 5.328125 0.0625 C 4.453125 -0.125 3.695312 -0.429688 3.0625 -0.859375 C 2.425781 -1.296875 1.941406 -1.863281 1.609375 -2.5625 C 1.273438 -3.257812 1.109375 -4.113281 1.109375 -5.125 C 1.109375 -6.09375 1.300781 -6.910156 1.6875 -7.578125 C 2.082031 -8.253906 2.601562 -8.789062 3.25 -9.1875 C 3.90625 -9.59375 4.65625 -9.882812 5.5 -10.0625 C 6.34375 -10.238281 7.21875 -10.328125 8.125 -10.328125 C 8.726562 -10.328125 9.265625 -10.300781 9.734375 -10.25 C 10.210938 -10.195312 10.601562 -10.128906 10.90625 -10.046875 L 10.90625 -10.484375 C 10.90625 -11.285156 10.660156 -11.925781 10.171875 -12.40625 C 9.691406 -12.894531 8.847656 -13.140625 7.640625 -13.140625 C 6.835938 -13.140625 6.046875 -13.082031 5.265625 -12.96875 C 4.492188 -12.851562 3.820312 -12.691406 3.25 -12.484375 L 2.65625 -16.265625 C 2.925781 -16.347656 3.265625 -16.4375 3.671875 -16.53125 C 4.085938 -16.632812 4.535156 -16.722656 5.015625 -16.796875 C 5.503906 -16.867188 6.015625 -16.929688 6.546875 -16.984375 C 7.085938 -17.035156 7.632812 -17.0625 8.1875 -17.0625 Z M 8.1875 -17.0625 "/></g></g></g><g fill="#27819b" fill-opacity="1"><g transform="translate(303.802333, 564.378861)"><g><path d="M 2.21875 -16.046875 C 3.007812 -16.273438 4.035156 -16.488281 5.296875 -16.6875 C 6.566406 -16.894531 7.894531 -17 9.28125 -17 C 10.695312 -17 11.875 -16.8125 12.8125 -16.4375 C 13.75 -16.070312 14.488281 -15.550781 15.03125 -14.875 C 15.582031 -14.207031 15.972656 -13.410156 16.203125 -12.484375 C 16.441406 -11.554688 16.5625 -10.523438 16.5625 -9.390625 L 16.5625 0 L 11.84375 0 L 11.84375 -8.8125 C 11.84375 -10.332031 11.640625 -11.40625 11.234375 -12.03125 C 10.835938 -12.664062 10.09375 -12.984375 9 -12.984375 C 8.664062 -12.984375 8.304688 -12.96875 7.921875 -12.9375 C 7.546875 -12.90625 7.210938 -12.867188 6.921875 -12.828125 L 6.921875 0 L 2.21875 0 Z M 2.21875 -16.046875 "/></g></g></g><g fill="#27819b" fill-opacity="1"><g transform="translate(322.412129, 564.378861)"><g><path d="M 1.421875 -8.3125 C 1.421875 -9.507812 1.613281 -10.640625 2 -11.703125 C 2.394531 -12.765625 2.957031 -13.691406 3.6875 -14.484375 C 4.425781 -15.273438 5.320312 -15.898438 6.375 -16.359375 C 7.4375 -16.828125 8.640625 -17.0625 9.984375 -17.0625 C 10.867188 -17.0625 11.675781 -16.984375 12.40625 -16.828125 C 13.144531 -16.671875 13.863281 -16.441406 14.5625 -16.140625 L 13.578125 -12.390625 C 13.140625 -12.554688 12.65625 -12.703125 12.125 -12.828125 C 11.601562 -12.953125 11.015625 -13.015625 10.359375 -13.015625 C 8.972656 -13.015625 7.9375 -12.582031 7.25 -11.71875 C 6.5625 -10.851562 6.21875 -9.71875 6.21875 -8.3125 C 6.21875 -6.8125 6.539062 -5.648438 7.1875 -4.828125 C 7.832031 -4.015625 8.953125 -3.609375 10.546875 -3.609375 C 11.117188 -3.609375 11.726562 -3.660156 12.375 -3.765625 C 13.03125 -3.867188 13.632812 -4.035156 14.1875 -4.265625 L 14.84375 -0.40625 C 14.300781 -0.175781 13.617188 0.0195312 12.796875 0.1875 C 11.972656 0.351562 11.066406 0.4375 10.078125 0.4375 C 8.554688 0.4375 7.25 0.210938 6.15625 -0.234375 C 5.0625 -0.691406 4.160156 -1.304688 3.453125 -2.078125 C 2.753906 -2.859375 2.238281 -3.78125 1.90625 -4.84375 C 1.582031 -5.90625 1.421875 -7.0625 1.421875 -8.3125 Z M 1.421875 -8.3125 "/></g></g></g><g fill="#27819b" fill-opacity="1"><g transform="translate(338.209928, 564.378861)"><g><path d="M 2.21875 0 L 2.21875 -23.765625 L 6.921875 -24.515625 L 6.921875 -16.5625 C 7.234375 -16.664062 7.632812 -16.765625 8.125 -16.859375 C 8.625 -16.953125 9.109375 -17 9.578125 -17 C 10.921875 -17 12.039062 -16.8125 12.9375 -16.4375 C 13.832031 -16.070312 14.546875 -15.550781 15.078125 -14.875 C 15.617188 -14.207031 16 -13.410156 16.21875 -12.484375 C 16.445312 -11.554688 16.5625 -10.523438 16.5625 -9.390625 L 16.5625 0 L 11.84375 0 L 11.84375 -8.8125 C 11.84375 -10.332031 11.644531 -11.40625 11.25 -12.03125 C 10.863281 -12.664062 10.144531 -12.984375 9.09375 -12.984375 C 8.675781 -12.984375 8.28125 -12.945312 7.90625 -12.875 C 7.539062 -12.800781 7.210938 -12.722656 6.921875 -12.640625 L 6.921875 0 Z M 2.21875 0 "/></g></g></g><g fill="#27819b" fill-opacity="1"><g transform="translate(356.819724, 564.378861)"><g/></g></g><g fill="#27819b" fill-opacity="1"><g transform="translate(364.402659, 564.378861)"><g><path d="M 2.53125 -21.890625 L 7.453125 -21.890625 L 7.453125 0 L 2.53125 0 Z M 2.53125 -21.890625 "/></g></g></g><g fill="#27819b" fill-opacity="1"><g transform="translate(374.386873, 564.378861)"><g><path d="M 6.21875 -8.4375 C 6.21875 -6.976562 6.546875 -5.804688 7.203125 -4.921875 C 7.859375 -4.046875 8.828125 -3.609375 10.109375 -3.609375 C 10.523438 -3.609375 10.910156 -3.625 11.265625 -3.65625 C 11.628906 -3.6875 11.925781 -3.722656 12.15625 -3.765625 L 12.15625 -12.328125 C 11.863281 -12.515625 11.476562 -12.671875 11 -12.796875 C 10.53125 -12.921875 10.054688 -12.984375 9.578125 -12.984375 C 7.335938 -12.984375 6.21875 -11.46875 6.21875 -8.4375 Z M 16.875 -0.53125 C 16.445312 -0.40625 15.957031 -0.285156 15.40625 -0.171875 C 14.863281 -0.0546875 14.289062 0.0390625 13.6875 0.125 C 13.09375 0.207031 12.484375 0.273438 11.859375 0.328125 C 11.242188 0.378906 10.648438 0.40625 10.078125 0.40625 C 8.710938 0.40625 7.488281 0.207031 6.40625 -0.1875 C 5.332031 -0.59375 4.425781 -1.164062 3.6875 -1.90625 C 2.957031 -2.65625 2.394531 -3.5625 2 -4.625 C 1.613281 -5.6875 1.421875 -6.882812 1.421875 -8.21875 C 1.421875 -9.5625 1.585938 -10.773438 1.921875 -11.859375 C 2.265625 -12.941406 2.75 -13.863281 3.375 -14.625 C 4.007812 -15.382812 4.785156 -15.960938 5.703125 -16.359375 C 6.617188 -16.765625 7.664062 -16.96875 8.84375 -16.96875 C 9.5 -16.96875 10.082031 -16.90625 10.59375 -16.78125 C 11.113281 -16.65625 11.632812 -16.472656 12.15625 -16.234375 L 12.15625 -23.765625 L 16.875 -24.515625 Z M 16.875 -0.53125 "/></g></g></g><g fill="#27819b" fill-opacity="1"><g transform="translate(393.470604, 564.378861)"><g><path d="M 1.421875 -8.1875 C 1.421875 -9.65625 1.644531 -10.941406 2.09375 -12.046875 C 2.550781 -13.160156 3.144531 -14.082031 3.875 -14.8125 C 4.613281 -15.550781 5.460938 -16.109375 6.421875 -16.484375 C 7.378906 -16.867188 8.367188 -17.0625 9.390625 -17.0625 C 11.742188 -17.0625 13.601562 -16.335938 14.96875 -14.890625 C 16.34375 -13.453125 17.03125 -11.332031 17.03125 -8.53125 C 17.03125 -8.257812 17.019531 -7.957031 17 -7.625 C 16.976562 -7.300781 16.957031 -7.015625 16.9375 -6.765625 L 6.25 -6.765625 C 6.351562 -5.796875 6.804688 -5.023438 7.609375 -4.453125 C 8.410156 -3.890625 9.488281 -3.609375 10.84375 -3.609375 C 11.695312 -3.609375 12.539062 -3.6875 13.375 -3.84375 C 14.207031 -4 14.890625 -4.191406 15.421875 -4.421875 L 16.046875 -0.59375 C 15.796875 -0.46875 15.457031 -0.34375 15.03125 -0.21875 C 14.613281 -0.09375 14.144531 0.015625 13.625 0.109375 C 13.113281 0.203125 12.5625 0.28125 11.96875 0.34375 C 11.382812 0.40625 10.796875 0.4375 10.203125 0.4375 C 8.710938 0.4375 7.410156 0.21875 6.296875 -0.21875 C 5.191406 -0.664062 4.273438 -1.269531 3.546875 -2.03125 C 2.828125 -2.800781 2.289062 -3.710938 1.9375 -4.765625 C 1.59375 -5.816406 1.421875 -6.957031 1.421875 -8.1875 Z M 12.484375 -9.984375 C 12.460938 -10.378906 12.390625 -10.765625 12.265625 -11.140625 C 12.148438 -11.523438 11.972656 -11.863281 11.734375 -12.15625 C 11.492188 -12.457031 11.1875 -12.703125 10.8125 -12.890625 C 10.445312 -13.078125 9.992188 -13.171875 9.453125 -13.171875 C 8.921875 -13.171875 8.460938 -13.082031 8.078125 -12.90625 C 7.703125 -12.726562 7.390625 -12.488281 7.140625 -12.1875 C 6.890625 -11.894531 6.691406 -11.550781 6.546875 -11.15625 C 6.410156 -10.769531 6.3125 -10.378906 6.25 -9.984375 Z M 12.484375 -9.984375 "/></g></g></g><g fill="#27819b" fill-opacity="1"><g transform="translate(411.922428, 564.378861)"><g><path d="M 2.21875 -16.046875 C 3.007812 -16.273438 4.035156 -16.488281 5.296875 -16.6875 C 6.566406 -16.894531 7.894531 -17 9.28125 -17 C 10.695312 -17 11.875 -16.8125 12.8125 -16.4375 C 13.75 -16.070312 14.488281 -15.550781 15.03125 -14.875 C 15.582031 -14.207031 15.972656 -13.410156 16.203125 -12.484375 C 16.441406 -11.554688 16.5625 -10.523438 16.5625 -9.390625 L 16.5625 0 L 11.84375 0 L 11.84375 -8.8125 C 11.84375 -10.332031 11.640625 -11.40625 11.234375 -12.03125 C 10.835938 -12.664062 10.09375 -12.984375 9 -12.984375 C 8.664062 -12.984375 8.304688 -12.96875 7.921875 -12.9375 C 7.546875 -12.90625 7.210938 -12.867188 6.921875 -12.828125 L 6.921875 0 L 2.21875 0 Z M 2.21875 -16.046875 "/></g></g></g><g fill="#27819b" fill-opacity="1"><g transform="translate(430.532224, 564.378861)"><g><path d="M 2.046875 -20.75 L 6.765625 -21.515625 L 6.765625 -16.625 L 12.421875 -16.625 L 12.421875 -12.703125 L 6.765625 -12.703125 L 6.765625 -6.859375 C 6.765625 -5.867188 6.9375 -5.078125 7.28125 -4.484375 C 7.625 -3.898438 8.328125 -3.609375 9.390625 -3.609375 C 9.890625 -3.609375 10.40625 -3.65625 10.9375 -3.75 C 11.476562 -3.84375 11.972656 -3.972656 12.421875 -4.140625 L 13.078125 -0.46875 C 12.515625 -0.238281 11.882812 -0.0390625 11.1875 0.125 C 10.488281 0.289062 9.632812 0.375 8.625 0.375 C 7.34375 0.375 6.28125 0.203125 5.4375 -0.140625 C 4.59375 -0.484375 3.914062 -0.96875 3.40625 -1.59375 C 2.90625 -2.21875 2.550781 -2.972656 2.34375 -3.859375 C 2.144531 -4.742188 2.046875 -5.722656 2.046875 -6.796875 Z M 2.046875 -20.75 "/></g></g></g><g fill="#27819b" fill-opacity="1"><g transform="translate(444.560673, 564.378861)"><g><path d="M 6.921875 0 L 2.21875 0 L 2.21875 -16.625 L 6.921875 -16.625 Z M 7.359375 -21.421875 C 7.359375 -20.554688 7.078125 -19.875 6.515625 -19.375 C 5.960938 -18.882812 5.304688 -18.640625 4.546875 -18.640625 C 3.785156 -18.640625 3.125 -18.882812 2.5625 -19.375 C 2.007812 -19.875 1.734375 -20.554688 1.734375 -21.421875 C 1.734375 -22.285156 2.007812 -22.960938 2.5625 -23.453125 C 3.125 -23.953125 3.785156 -24.203125 4.546875 -24.203125 C 5.304688 -24.203125 5.960938 -23.953125 6.515625 -23.453125 C 7.078125 -22.960938 7.359375 -22.285156 7.359375 -21.421875 Z M 7.359375 -21.421875 "/></g></g></g><g fill="#27819b" fill-opacity="1"><g transform="translate(453.691789, 564.378861)"><g><path d="M 9.421875 -24.515625 C 10.296875 -24.515625 11.101562 -24.425781 11.84375 -24.25 C 12.582031 -24.070312 13.148438 -23.898438 13.546875 -23.734375 L 12.640625 -19.96875 C 12.210938 -20.15625 11.75 -20.296875 11.25 -20.390625 C 10.757812 -20.484375 10.304688 -20.53125 9.890625 -20.53125 C 9.316406 -20.53125 8.832031 -20.453125 8.4375 -20.296875 C 8.050781 -20.140625 7.75 -19.921875 7.53125 -19.640625 C 7.3125 -19.367188 7.15625 -19.046875 7.0625 -18.671875 C 6.96875 -18.296875 6.921875 -17.882812 6.921875 -17.4375 L 6.921875 -16.625 L 12.734375 -16.625 L 12.734375 -12.703125 L 6.921875 -12.703125 L 6.921875 0 L 2.21875 0 L 2.21875 -17.5 C 2.21875 -19.644531 2.820312 -21.347656 4.03125 -22.609375 C 5.238281 -23.878906 7.035156 -24.515625 9.421875 -24.515625 Z M 9.421875 -24.515625 "/></g></g></g><g fill="#27819b" fill-opacity="1"><g transform="translate(467.025133, 564.378861)"><g><path d="M 6.921875 0 L 2.21875 0 L 2.21875 -16.625 L 6.921875 -16.625 Z M 7.359375 -21.421875 C 7.359375 -20.554688 7.078125 -19.875 6.515625 -19.375 C 5.960938 -18.882812 5.304688 -18.640625 4.546875 -18.640625 C 3.785156 -18.640625 3.125 -18.882812 2.5625 -19.375 C 2.007812 -19.875 1.734375 -20.554688 1.734375 -21.421875 C 1.734375 -22.285156 2.007812 -22.960938 2.5625 -23.453125 C 3.125 -23.953125 3.785156 -24.203125 4.546875 -24.203125 C 5.304688 -24.203125 5.960938 -23.953125 6.515625 -23.453125 C 7.078125 -22.960938 7.359375 -22.285156 7.359375 -21.421875 Z M 7.359375 -21.421875 "/></g></g></g><g fill="#27819b" fill-opacity="1"><g transform="translate(476.15625, 564.378861)"><g><path d="M 1.421875 -8.1875 C 1.421875 -9.65625 1.644531 -10.941406 2.09375 -12.046875 C 2.550781 -13.160156 3.144531 -14.082031 3.875 -14.8125 C 4.613281 -15.550781 5.460938 -16.109375 6.421875 -16.484375 C 7.378906 -16.867188 8.367188 -17.0625 9.390625 -17.0625 C 11.742188 -17.0625 13.601562 -16.335938 14.96875 -14.890625 C 16.34375 -13.453125 17.03125 -11.332031 17.03125 -8.53125 C 17.03125 -8.257812 17.019531 -7.957031 17 -7.625 C 16.976562 -7.300781 16.957031 -7.015625 16.9375 -6.765625 L 6.25 -6.765625 C 6.351562 -5.796875 6.804688 -5.023438 7.609375 -4.453125 C 8.410156 -3.890625 9.488281 -3.609375 10.84375 -3.609375 C 11.695312 -3.609375 12.539062 -3.6875 13.375 -3.84375 C 14.207031 -4 14.890625 -4.191406 15.421875 -4.421875 L 16.046875 -0.59375 C 15.796875 -0.46875 15.457031 -0.34375 15.03125 -0.21875 C 14.613281 -0.09375 14.144531 0.015625 13.625 0.109375 C 13.113281 0.203125 12.5625 0.28125 11.96875 0.34375 C 11.382812 0.40625 10.796875 0.4375 10.203125 0.4375 C 8.710938 0.4375 7.410156 0.21875 6.296875 -0.21875 C 5.191406 -0.664062 4.273438 -1.269531 3.546875 -2.03125 C 2.828125 -2.800781 2.289062 -3.710938 1.9375 -4.765625 C 1.59375 -5.816406 1.421875 -6.957031 1.421875 -8.1875 Z M 12.484375 -9.984375 C 12.460938 -10.378906 12.390625 -10.765625 12.265625 -11.140625 C 12.148438 -11.523438 11.972656 -11.863281 11.734375 -12.15625 C 11.492188 -12.457031 11.1875 -12.703125 10.8125 -12.890625 C 10.445312 -13.078125 9.992188 -13.171875 9.453125 -13.171875 C 8.921875 -13.171875 8.460938 -13.082031 8.078125 -12.90625 C 7.703125 -12.726562 7.390625 -12.488281 7.140625 -12.1875 C 6.890625 -11.894531 6.691406 -11.550781 6.546875 -11.15625 C 6.410156 -10.769531 6.3125 -10.378906 6.25 -9.984375 Z M 12.484375 -9.984375 "/></g></g></g><g fill="#27819b" fill-opacity="1"><g transform="translate(494.608074, 564.378861)"><g><path d="M 12.234375 -12.453125 C 11.804688 -12.554688 11.304688 -12.664062 10.734375 -12.78125 C 10.171875 -12.894531 9.5625 -12.953125 8.90625 -12.953125 C 8.613281 -12.953125 8.257812 -12.925781 7.84375 -12.875 C 7.4375 -12.820312 7.128906 -12.765625 6.921875 -12.703125 L 6.921875 0 L 2.21875 0 L 2.21875 -15.734375 C 3.050781 -16.023438 4.039062 -16.300781 5.1875 -16.5625 C 6.34375 -16.832031 7.625 -16.96875 9.03125 -16.96875 C 9.289062 -16.96875 9.597656 -16.953125 9.953125 -16.921875 C 10.304688 -16.890625 10.660156 -16.847656 11.015625 -16.796875 C 11.378906 -16.742188 11.738281 -16.675781 12.09375 -16.59375 C 12.457031 -16.519531 12.765625 -16.429688 13.015625 -16.328125 Z M 12.234375 -12.453125 "/></g></g></g><g fill="#27819b" fill-opacity="1"><g transform="translate(608.606966, 124.508324)"><g><path d="M 17.984375 -18.484375 C 17.304688 -17.785156 16.503906 -16.882812 15.578125 -15.78125 C 14.648438 -14.675781 13.691406 -13.46875 12.703125 -12.15625 C 11.710938 -10.851562 10.734375 -9.503906 9.765625 -8.109375 C 8.796875 -6.722656 7.929688 -5.398438 7.171875 -4.140625 L 18.328125 -4.140625 L 18.328125 0 L 1.109375 0 L 1.109375 -2.9375 C 1.691406 -4.007812 2.410156 -5.203125 3.265625 -6.515625 C 4.117188 -7.835938 5.007812 -9.164062 5.9375 -10.5 C 6.863281 -11.84375 7.804688 -13.140625 8.765625 -14.390625 C 9.722656 -15.640625 10.613281 -16.757812 11.4375 -17.75 L 1.609375 -17.75 L 1.609375 -21.890625 L 17.984375 -21.890625 Z M 17.984375 -18.484375 "/></g></g></g><g fill="#27819b" fill-opacity="1"><g transform="translate(627.880268, 124.508324)"><g><path d="M 2.53125 0 L 2.53125 -21.890625 L 17.3125 -21.890625 L 17.3125 -17.75 L 7.453125 -17.75 L 7.453125 -13.453125 L 16.203125 -13.453125 L 16.203125 -9.421875 L 7.453125 -9.421875 L 7.453125 -4.140625 L 18.046875 -4.140625 L 18.046875 0 Z M 2.53125 0 "/></g></g></g><g fill="#27819b" fill-opacity="1"><g transform="translate(647.027197, 124.508324)"><g><path d="M 8.9375 -22.140625 C 12.226562 -22.140625 14.742188 -21.554688 16.484375 -20.390625 C 18.234375 -19.222656 19.109375 -17.40625 19.109375 -14.9375 C 19.109375 -13.40625 18.753906 -12.160156 18.046875 -11.203125 C 17.347656 -10.242188 16.332031 -9.488281 15 -8.9375 C 15.445312 -8.394531 15.910156 -7.769531 16.390625 -7.0625 C 16.878906 -6.351562 17.359375 -5.613281 17.828125 -4.84375 C 18.304688 -4.082031 18.765625 -3.285156 19.203125 -2.453125 C 19.648438 -1.617188 20.0625 -0.800781 20.4375 0 L 14.90625 0 C 14.507812 -0.71875 14.101562 -1.441406 13.6875 -2.171875 C 13.28125 -2.910156 12.859375 -3.628906 12.421875 -4.328125 C 11.992188 -5.023438 11.566406 -5.679688 11.140625 -6.296875 C 10.722656 -6.921875 10.304688 -7.488281 9.890625 -8 L 7.453125 -8 L 7.453125 0 L 2.53125 0 L 2.53125 -21.578125 C 3.601562 -21.785156 4.710938 -21.929688 5.859375 -22.015625 C 7.003906 -22.097656 8.03125 -22.140625 8.9375 -22.140625 Z M 9.21875 -17.9375 C 8.863281 -17.9375 8.539062 -17.925781 8.25 -17.90625 C 7.96875 -17.882812 7.703125 -17.863281 7.453125 -17.84375 L 7.453125 -11.90625 L 8.84375 -11.90625 C 10.695312 -11.90625 12.023438 -12.132812 12.828125 -12.59375 C 13.628906 -13.0625 14.03125 -13.851562 14.03125 -14.96875 C 14.03125 -16.050781 13.625 -16.816406 12.8125 -17.265625 C 12 -17.710938 10.800781 -17.9375 9.21875 -17.9375 Z M 9.21875 -17.9375 "/></g></g></g><g fill="#27819b" fill-opacity="1"><g transform="translate(668.101447, 124.508324)"><g><path d="M 6.671875 -10.96875 C 6.671875 -9.894531 6.800781 -8.925781 7.0625 -8.0625 C 7.320312 -7.195312 7.695312 -6.453125 8.1875 -5.828125 C 8.6875 -5.203125 9.296875 -4.722656 10.015625 -4.390625 C 10.734375 -4.054688 11.554688 -3.890625 12.484375 -3.890625 C 13.390625 -3.890625 14.203125 -4.054688 14.921875 -4.390625 C 15.648438 -4.722656 16.257812 -5.203125 16.75 -5.828125 C 17.25 -6.453125 17.628906 -7.195312 17.890625 -8.0625 C 18.160156 -8.925781 18.296875 -9.894531 18.296875 -10.96875 C 18.296875 -12.039062 18.160156 -13.015625 17.890625 -13.890625 C 17.628906 -14.765625 17.25 -15.507812 16.75 -16.125 C 16.257812 -16.75 15.648438 -17.226562 14.921875 -17.5625 C 14.203125 -17.90625 13.390625 -18.078125 12.484375 -18.078125 C 11.554688 -18.078125 10.734375 -17.898438 10.015625 -17.546875 C 9.296875 -17.203125 8.6875 -16.71875 8.1875 -16.09375 C 7.695312 -15.476562 7.320312 -14.734375 7.0625 -13.859375 C 6.800781 -12.984375 6.671875 -12.019531 6.671875 -10.96875 Z M 23.375 -10.96875 C 23.375 -9.09375 23.09375 -7.441406 22.53125 -6.015625 C 21.976562 -4.597656 21.21875 -3.410156 20.25 -2.453125 C 19.28125 -1.492188 18.125 -0.769531 16.78125 -0.28125 C 15.445312 0.195312 14.015625 0.4375 12.484375 0.4375 C 10.984375 0.4375 9.566406 0.195312 8.234375 -0.28125 C 6.910156 -0.769531 5.753906 -1.492188 4.765625 -2.453125 C 3.773438 -3.410156 2.992188 -4.597656 2.421875 -6.015625 C 1.859375 -7.441406 1.578125 -9.09375 1.578125 -10.96875 C 1.578125 -12.84375 1.867188 -14.488281 2.453125 -15.90625 C 3.046875 -17.332031 3.84375 -18.53125 4.84375 -19.5 C 5.84375 -20.46875 7 -21.191406 8.3125 -21.671875 C 9.632812 -22.160156 11.023438 -22.40625 12.484375 -22.40625 C 13.972656 -22.40625 15.378906 -22.160156 16.703125 -21.671875 C 18.035156 -21.191406 19.195312 -20.46875 20.1875 -19.5 C 21.175781 -18.53125 21.953125 -17.332031 22.515625 -15.90625 C 23.085938 -14.488281 23.375 -12.84375 23.375 -10.96875 Z M 23.375 -10.96875 "/></g></g></g><g fill="#27819b" fill-opacity="1"><g transform="translate(901.522451, 564.378861)"><g><path d="M 9.828125 0.28125 C 8.628906 0.28125 7.429688 0.242188 6.234375 0.171875 C 5.046875 0.0976562 3.8125 -0.0703125 2.53125 -0.34375 L 2.53125 -21.578125 C 3.539062 -21.765625 4.644531 -21.90625 5.84375 -22 C 7.039062 -22.09375 8.15625 -22.140625 9.1875 -22.140625 C 10.582031 -22.140625 11.863281 -22.039062 13.03125 -21.84375 C 14.195312 -21.644531 15.203125 -21.300781 16.046875 -20.8125 C 16.890625 -20.332031 17.546875 -19.695312 18.015625 -18.90625 C 18.492188 -18.113281 18.734375 -17.140625 18.734375 -15.984375 C 18.734375 -14.234375 17.890625 -12.851562 16.203125 -11.84375 C 17.597656 -11.320312 18.546875 -10.609375 19.046875 -9.703125 C 19.554688 -8.796875 19.8125 -7.773438 19.8125 -6.640625 C 19.8125 -4.335938 18.972656 -2.609375 17.296875 -1.453125 C 15.617188 -0.296875 13.128906 0.28125 9.828125 0.28125 Z M 7.328125 -9.546875 L 7.328125 -3.890625 C 7.679688 -3.847656 8.066406 -3.816406 8.484375 -3.796875 C 8.910156 -3.773438 9.378906 -3.765625 9.890625 -3.765625 C 11.359375 -3.765625 12.546875 -3.972656 13.453125 -4.390625 C 14.359375 -4.804688 14.8125 -5.585938 14.8125 -6.734375 C 14.8125 -7.742188 14.429688 -8.460938 13.671875 -8.890625 C 12.921875 -9.328125 11.835938 -9.546875 10.421875 -9.546875 Z M 7.328125 -13.296875 L 9.734375 -13.296875 C 11.242188 -13.296875 12.328125 -13.488281 12.984375 -13.875 C 13.640625 -14.269531 13.96875 -14.898438 13.96875 -15.765625 C 13.96875 -16.648438 13.628906 -17.269531 12.953125 -17.625 C 12.273438 -17.988281 11.285156 -18.171875 9.984375 -18.171875 C 9.566406 -18.171875 9.113281 -18.164062 8.625 -18.15625 C 8.144531 -18.144531 7.710938 -18.117188 7.328125 -18.078125 Z M 7.328125 -13.296875 "/></g></g></g><g fill="#27819b" fill-opacity="1"><g transform="translate(922.754694, 564.378861)"><g><path d="M 12.234375 -12.453125 C 11.804688 -12.554688 11.304688 -12.664062 10.734375 -12.78125 C 10.171875 -12.894531 9.5625 -12.953125 8.90625 -12.953125 C 8.613281 -12.953125 8.257812 -12.925781 7.84375 -12.875 C 7.4375 -12.820312 7.128906 -12.765625 6.921875 -12.703125 L 6.921875 0 L 2.21875 0 L 2.21875 -15.734375 C 3.050781 -16.023438 4.039062 -16.300781 5.1875 -16.5625 C 6.34375 -16.832031 7.625 -16.96875 9.03125 -16.96875 C 9.289062 -16.96875 9.597656 -16.953125 9.953125 -16.921875 C 10.304688 -16.890625 10.660156 -16.847656 11.015625 -16.796875 C 11.378906 -16.742188 11.738281 -16.675781 12.09375 -16.59375 C 12.457031 -16.519531 12.765625 -16.429688 13.015625 -16.328125 Z M 12.234375 -12.453125 "/></g></g></g><g fill="#27819b" fill-opacity="1"><g transform="translate(936.088038, 564.378861)"><g><path d="M 8.5625 -3.28125 C 9.019531 -3.28125 9.457031 -3.289062 9.875 -3.3125 C 10.300781 -3.332031 10.644531 -3.363281 10.90625 -3.40625 L 10.90625 -6.984375 C 10.707031 -7.023438 10.421875 -7.066406 10.046875 -7.109375 C 9.671875 -7.148438 9.320312 -7.171875 9 -7.171875 C 8.5625 -7.171875 8.144531 -7.144531 7.75 -7.09375 C 7.363281 -7.039062 7.019531 -6.941406 6.71875 -6.796875 C 6.425781 -6.648438 6.195312 -6.445312 6.03125 -6.1875 C 5.863281 -5.9375 5.78125 -5.625 5.78125 -5.25 C 5.78125 -4.507812 6.023438 -3.992188 6.515625 -3.703125 C 7.015625 -3.421875 7.695312 -3.28125 8.5625 -3.28125 Z M 8.1875 -17.0625 C 9.570312 -17.0625 10.726562 -16.898438 11.65625 -16.578125 C 12.582031 -16.265625 13.320312 -15.8125 13.875 -15.21875 C 14.4375 -14.632812 14.832031 -13.921875 15.0625 -13.078125 C 15.300781 -12.234375 15.421875 -11.296875 15.421875 -10.265625 L 15.421875 -0.46875 C 14.742188 -0.320312 13.804688 -0.148438 12.609375 0.046875 C 11.410156 0.242188 9.957031 0.34375 8.25 0.34375 C 7.175781 0.34375 6.203125 0.25 5.328125 0.0625 C 4.453125 -0.125 3.695312 -0.429688 3.0625 -0.859375 C 2.425781 -1.296875 1.941406 -1.863281 1.609375 -2.5625 C 1.273438 -3.257812 1.109375 -4.113281 1.109375 -5.125 C 1.109375 -6.09375 1.300781 -6.910156 1.6875 -7.578125 C 2.082031 -8.253906 2.601562 -8.789062 3.25 -9.1875 C 3.90625 -9.59375 4.65625 -9.882812 5.5 -10.0625 C 6.34375 -10.238281 7.21875 -10.328125 8.125 -10.328125 C 8.726562 -10.328125 9.265625 -10.300781 9.734375 -10.25 C 10.210938 -10.195312 10.601562 -10.128906 10.90625 -10.046875 L 10.90625 -10.484375 C 10.90625 -11.285156 10.660156 -11.925781 10.171875 -12.40625 C 9.691406 -12.894531 8.847656 -13.140625 7.640625 -13.140625 C 6.835938 -13.140625 6.046875 -13.082031 5.265625 -12.96875 C 4.492188 -12.851562 3.820312 -12.691406 3.25 -12.484375 L 2.65625 -16.265625 C 2.925781 -16.347656 3.265625 -16.4375 3.671875 -16.53125 C 4.085938 -16.632812 4.535156 -16.722656 5.015625 -16.796875 C 5.503906 -16.867188 6.015625 -16.929688 6.546875 -16.984375 C 7.085938 -17.035156 7.632812 -17.0625 8.1875 -17.0625 Z M 8.1875 -17.0625 "/></g></g></g><g fill="#27819b" fill-opacity="1"><g transform="translate(953.560391, 564.378861)"><g><path d="M 2.21875 -16.046875 C 3.007812 -16.273438 4.035156 -16.488281 5.296875 -16.6875 C 6.566406 -16.894531 7.894531 -17 9.28125 -17 C 10.695312 -17 11.875 -16.8125 12.8125 -16.4375 C 13.75 -16.070312 14.488281 -15.550781 15.03125 -14.875 C 15.582031 -14.207031 15.972656 -13.410156 16.203125 -12.484375 C 16.441406 -11.554688 16.5625 -10.523438 16.5625 -9.390625 L 16.5625 0 L 11.84375 0 L 11.84375 -8.8125 C 11.84375 -10.332031 11.640625 -11.40625 11.234375 -12.03125 C 10.835938 -12.664062 10.09375 -12.984375 9 -12.984375 C 8.664062 -12.984375 8.304688 -12.96875 7.921875 -12.9375 C 7.546875 -12.90625 7.210938 -12.867188 6.921875 -12.828125 L 6.921875 0 L 2.21875 0 Z M 2.21875 -16.046875 "/></g></g></g><g fill="#27819b" fill-opacity="1"><g transform="translate(972.170187, 564.378861)"><g><path d="M 1.421875 -8.3125 C 1.421875 -9.507812 1.613281 -10.640625 2 -11.703125 C 2.394531 -12.765625 2.957031 -13.691406 3.6875 -14.484375 C 4.425781 -15.273438 5.320312 -15.898438 6.375 -16.359375 C 7.4375 -16.828125 8.640625 -17.0625 9.984375 -17.0625 C 10.867188 -17.0625 11.675781 -16.984375 12.40625 -16.828125 C 13.144531 -16.671875 13.863281 -16.441406 14.5625 -16.140625 L 13.578125 -12.390625 C 13.140625 -12.554688 12.65625 -12.703125 12.125 -12.828125 C 11.601562 -12.953125 11.015625 -13.015625 10.359375 -13.015625 C 8.972656 -13.015625 7.9375 -12.582031 7.25 -11.71875 C 6.5625 -10.851562 6.21875 -9.71875 6.21875 -8.3125 C 6.21875 -6.8125 6.539062 -5.648438 7.1875 -4.828125 C 7.832031 -4.015625 8.953125 -3.609375 10.546875 -3.609375 C 11.117188 -3.609375 11.726562 -3.660156 12.375 -3.765625 C 13.03125 -3.867188 13.632812 -4.035156 14.1875 -4.265625 L 14.84375 -0.40625 C 14.300781 -0.175781 13.617188 0.0195312 12.796875 0.1875 C 11.972656 0.351562 11.066406 0.4375 10.078125 0.4375 C 8.554688 0.4375 7.25 0.210938 6.15625 -0.234375 C 5.0625 -0.691406 4.160156 -1.304688 3.453125 -2.078125 C 2.753906 -2.859375 2.238281 -3.78125 1.90625 -4.84375 C 1.582031 -5.90625 1.421875 -7.0625 1.421875 -8.3125 Z M 1.421875 -8.3125 "/></g></g></g><g fill="#27819b" fill-opacity="1"><g transform="translate(987.967986, 564.378861)"><g><path d="M 2.21875 0 L 2.21875 -23.765625 L 6.921875 -24.515625 L 6.921875 -16.5625 C 7.234375 -16.664062 7.632812 -16.765625 8.125 -16.859375 C 8.625 -16.953125 9.109375 -17 9.578125 -17 C 10.921875 -17 12.039062 -16.8125 12.9375 -16.4375 C 13.832031 -16.070312 14.546875 -15.550781 15.078125 -14.875 C 15.617188 -14.207031 16 -13.410156 16.21875 -12.484375 C 16.445312 -11.554688 16.5625 -10.523438 16.5625 -9.390625 L 16.5625 0 L 11.84375 0 L 11.84375 -8.8125 C 11.84375 -10.332031 11.644531 -11.40625 11.25 -12.03125 C 10.863281 -12.664062 10.144531 -12.984375 9.09375 -12.984375 C 8.675781 -12.984375 8.28125 -12.945312 7.90625 -12.875 C 7.539062 -12.800781 7.210938 -12.722656 6.921875 -12.640625 L 6.921875 0 Z M 2.21875 0 "/></g></g></g><g fill="#27819b" fill-opacity="1"><g transform="translate(1006.577782, 564.378861)"><g/></g></g><g fill="#27819b" fill-opacity="1"><g transform="translate(1014.160717, 564.378861)"><g><path d="M 1.421875 -8.3125 C 1.421875 -9.507812 1.613281 -10.640625 2 -11.703125 C 2.394531 -12.765625 2.957031 -13.691406 3.6875 -14.484375 C 4.425781 -15.273438 5.320312 -15.898438 6.375 -16.359375 C 7.4375 -16.828125 8.640625 -17.0625 9.984375 -17.0625 C 10.867188 -17.0625 11.675781 -16.984375 12.40625 -16.828125 C 13.144531 -16.671875 13.863281 -16.441406 14.5625 -16.140625 L 13.578125 -12.390625 C 13.140625 -12.554688 12.65625 -12.703125 12.125 -12.828125 C 11.601562 -12.953125 11.015625 -13.015625 10.359375 -13.015625 C 8.972656 -13.015625 7.9375 -12.582031 7.25 -11.71875 C 6.5625 -10.851562 6.21875 -9.71875 6.21875 -8.3125 C 6.21875 -6.8125 6.539062 -5.648438 7.1875 -4.828125 C 7.832031 -4.015625 8.953125 -3.609375 10.546875 -3.609375 C 11.117188 -3.609375 11.726562 -3.660156 12.375 -3.765625 C 13.03125 -3.867188 13.632812 -4.035156 14.1875 -4.265625 L 14.84375 -0.40625 C 14.300781 -0.175781 13.617188 0.0195312 12.796875 0.1875 C 11.972656 0.351562 11.066406 0.4375 10.078125 0.4375 C 8.554688 0.4375 7.25 0.210938 6.15625 -0.234375 C 5.0625 -0.691406 4.160156 -1.304688 3.453125 -2.078125 C 2.753906 -2.859375 2.238281 -3.78125 1.90625 -4.84375 C 1.582031 -5.90625 1.421875 -7.0625 1.421875 -8.3125 Z M 1.421875 -8.3125 "/></g></g></g><g fill="#27819b" fill-opacity="1"><g transform="translate(1029.958516, 564.378861)"><g><path d="M 17.75 -8.34375 C 17.75 -7.03125 17.5625 -5.832031 17.1875 -4.75 C 16.8125 -3.664062 16.265625 -2.738281 15.546875 -1.96875 C 14.828125 -1.207031 13.96875 -0.613281 12.96875 -0.1875 C 11.96875 0.226562 10.847656 0.4375 9.609375 0.4375 C 8.378906 0.4375 7.265625 0.226562 6.265625 -0.1875 C 5.265625 -0.613281 4.40625 -1.207031 3.6875 -1.96875 C 2.976562 -2.738281 2.421875 -3.664062 2.015625 -4.75 C 1.617188 -5.832031 1.421875 -7.03125 1.421875 -8.34375 C 1.421875 -9.644531 1.625 -10.832031 2.03125 -11.90625 C 2.445312 -12.976562 3.015625 -13.894531 3.734375 -14.65625 C 4.460938 -15.414062 5.328125 -16.003906 6.328125 -16.421875 C 7.328125 -16.847656 8.421875 -17.0625 9.609375 -17.0625 C 10.804688 -17.0625 11.90625 -16.847656 12.90625 -16.421875 C 13.90625 -16.003906 14.765625 -15.414062 15.484375 -14.65625 C 16.203125 -13.894531 16.757812 -12.976562 17.15625 -11.90625 C 17.550781 -10.832031 17.75 -9.644531 17.75 -8.34375 Z M 12.953125 -8.34375 C 12.953125 -9.789062 12.660156 -10.929688 12.078125 -11.765625 C 11.503906 -12.597656 10.679688 -13.015625 9.609375 -13.015625 C 8.535156 -13.015625 7.703125 -12.597656 7.109375 -11.765625 C 6.515625 -10.929688 6.21875 -9.789062 6.21875 -8.34375 C 6.21875 -6.882812 6.515625 -5.726562 7.109375 -4.875 C 7.703125 -4.03125 8.535156 -3.609375 9.609375 -3.609375 C 10.679688 -3.609375 11.503906 -4.03125 12.078125 -4.875 C 12.660156 -5.726562 12.953125 -6.882812 12.953125 -8.34375 Z M 12.953125 -8.34375 "/></g></g></g><g fill="#27819b" fill-opacity="1"><g transform="translate(1049.137043, 564.378861)"><g><path d="M 6.21875 -8.4375 C 6.21875 -6.976562 6.546875 -5.804688 7.203125 -4.921875 C 7.859375 -4.046875 8.828125 -3.609375 10.109375 -3.609375 C 10.523438 -3.609375 10.910156 -3.625 11.265625 -3.65625 C 11.628906 -3.6875 11.925781 -3.722656 12.15625 -3.765625 L 12.15625 -12.328125 C 11.863281 -12.515625 11.476562 -12.671875 11 -12.796875 C 10.53125 -12.921875 10.054688 -12.984375 9.578125 -12.984375 C 7.335938 -12.984375 6.21875 -11.46875 6.21875 -8.4375 Z M 16.875 -0.53125 C 16.445312 -0.40625 15.957031 -0.285156 15.40625 -0.171875 C 14.863281 -0.0546875 14.289062 0.0390625 13.6875 0.125 C 13.09375 0.207031 12.484375 0.273438 11.859375 0.328125 C 11.242188 0.378906 10.648438 0.40625 10.078125 0.40625 C 8.710938 0.40625 7.488281 0.207031 6.40625 -0.1875 C 5.332031 -0.59375 4.425781 -1.164062 3.6875 -1.90625 C 2.957031 -2.65625 2.394531 -3.5625 2 -4.625 C 1.613281 -5.6875 1.421875 -6.882812 1.421875 -8.21875 C 1.421875 -9.5625 1.585938 -10.773438 1.921875 -11.859375 C 2.265625 -12.941406 2.75 -13.863281 3.375 -14.625 C 4.007812 -15.382812 4.785156 -15.960938 5.703125 -16.359375 C 6.617188 -16.765625 7.664062 -16.96875 8.84375 -16.96875 C 9.5 -16.96875 10.082031 -16.90625 10.59375 -16.78125 C 11.113281 -16.65625 11.632812 -16.472656 12.15625 -16.234375 L 12.15625 -23.765625 L 16.875 -24.515625 Z M 16.875 -0.53125 "/></g></g></g><g fill="#27819b" fill-opacity="1"><g transform="translate(1068.220775, 564.378861)"><g><path d="M 1.421875 -8.1875 C 1.421875 -9.65625 1.644531 -10.941406 2.09375 -12.046875 C 2.550781 -13.160156 3.144531 -14.082031 3.875 -14.8125 C 4.613281 -15.550781 5.460938 -16.109375 6.421875 -16.484375 C 7.378906 -16.867188 8.367188 -17.0625 9.390625 -17.0625 C 11.742188 -17.0625 13.601562 -16.335938 14.96875 -14.890625 C 16.34375 -13.453125 17.03125 -11.332031 17.03125 -8.53125 C 17.03125 -8.257812 17.019531 -7.957031 17 -7.625 C 16.976562 -7.300781 16.957031 -7.015625 16.9375 -6.765625 L 6.25 -6.765625 C 6.351562 -5.796875 6.804688 -5.023438 7.609375 -4.453125 C 8.410156 -3.890625 9.488281 -3.609375 10.84375 -3.609375 C 11.695312 -3.609375 12.539062 -3.6875 13.375 -3.84375 C 14.207031 -4 14.890625 -4.191406 15.421875 -4.421875 L 16.046875 -0.59375 C 15.796875 -0.46875 15.457031 -0.34375 15.03125 -0.21875 C 14.613281 -0.09375 14.144531 0.015625 13.625 0.109375 C 13.113281 0.203125 12.5625 0.28125 11.96875 0.34375 C 11.382812 0.40625 10.796875 0.4375 10.203125 0.4375 C 8.710938 0.4375 7.410156 0.21875 6.296875 -0.21875 C 5.191406 -0.664062 4.273438 -1.269531 3.546875 -2.03125 C 2.828125 -2.800781 2.289062 -3.710938 1.9375 -4.765625 C 1.59375 -5.816406 1.421875 -6.957031 1.421875 -8.1875 Z M 12.484375 -9.984375 C 12.460938 -10.378906 12.390625 -10.765625 12.265625 -11.140625 C 12.148438 -11.523438 11.972656 -11.863281 11.734375 -12.15625 C 11.492188 -12.457031 11.1875 -12.703125 10.8125 -12.890625 C 10.445312 -13.078125 9.992188 -13.171875 9.453125 -13.171875 C 8.921875 -13.171875 8.460938 -13.082031 8.078125 -12.90625 C 7.703125 -12.726562 7.390625 -12.488281 7.140625 -12.1875 C 6.890625 -11.894531 6.691406 -11.550781 6.546875 -11.15625 C 6.410156 -10.769531 6.3125 -10.378906 6.25 -9.984375 Z M 12.484375 -9.984375 "/></g></g></g></svg>